<svg width="107" height="20" viewBox="0 0 107 20" fill="none" xmlns="http://www.w3.org/2000/svg">
<path fill-rule="evenodd" clip-rule="evenodd" d="M26.3807 9.29623C26.3807 9.90548 26.4797 10.4843 26.6777 11.0326C26.8758 11.5809 27.1575 12.0658 27.5231 12.4872C27.8886 12.9086 28.338 13.2437 28.8711 13.4925C29.4042 13.7413 30.0058 13.8656 30.676 13.8656C31.336 13.8656 31.9326 13.7413 32.4657 13.4925C32.9988 13.2437 33.4506 12.9086 33.8213 12.4872C34.1919 12.0658 34.4788 11.5809 34.6818 11.0326C34.8849 10.4843 34.9865 9.90548 34.9865 9.29623C34.9865 8.68697 34.8849 8.10818 34.6818 7.55985C34.4788 7.01151 34.1919 6.52665 33.8213 6.10525C33.4506 5.68384 32.9988 5.34876 32.4657 5.09997C31.9326 4.85119 31.336 4.72681 30.676 4.72681C30.0058 4.72681 29.4042 4.85119 28.8711 5.09997C28.338 5.34876 27.8886 5.68384 27.5231 6.10525C27.1575 6.52665 26.8758 7.01151 26.6777 7.55985C26.4797 8.10818 26.3807 8.68697 26.3807 9.29623ZM36.8447 14.8252H30.676C29.8941 14.8252 29.1706 14.6881 28.5055 14.414C27.8404 14.1398 27.2642 13.7565 26.7767 13.264C26.2893 12.7715 25.9086 12.1877 25.6344 11.5124C25.3602 10.8371 25.2231 10.0984 25.2231 9.29623C25.2231 8.49403 25.3602 7.75532 25.6344 7.08006C25.9086 6.40479 26.2893 5.82093 26.7767 5.32845C27.2642 4.83596 27.8404 4.45264 28.5055 4.17847C29.1706 3.90431 29.8941 3.76723 30.676 3.76723C31.4477 3.76723 32.1661 3.90431 32.8312 4.17847C33.4963 4.45264 34.0726 4.83596 34.56 5.32845C35.0474 5.82093 35.4282 6.40479 35.7023 7.08006C35.9765 7.75532 36.1136 8.49403 36.1136 9.29623C36.1136 10.2507 35.9029 11.1215 35.4815 11.9084C35.0601 12.6954 34.428 13.3325 33.5852 13.82V13.8504H36.8447V14.8252ZM41.2466 13.3173H41.277L43.973 4.04139H45.2829L47.9789 13.3173H48.0093L50.6443 4.04139H51.8019L48.6186 14.8252H47.3391L44.6279 5.56453H44.5975L41.8863 14.8252H40.6069L37.4235 4.04139H38.5811L41.2466 13.3173ZM54.9498 14.8252H53.8531V4.04139H54.9498V14.8252ZM59.113 8.88498H59.1283L64.2612 4.04139H65.8301L60.3925 8.93067L66.1347 14.8252H64.5202L59.1283 9.08299H59.113V14.8252H58.0164V4.04139H59.113V8.88498ZM67.871 14.8252V4.04139H70.4908V12.5557H74.6642V14.8252H67.871ZM84.6154 14.8252L83.7777 12.7081H79.6043L78.8123 14.8252H75.9792L80.503 4.04139H83.0314L87.5094 14.8252H84.6154ZM81.7215 6.92013L80.3506 10.6214H83.0618L81.7215 6.92013ZM97.425 11.6876C97.425 12.2765 97.3083 12.7715 97.0747 13.1726C96.8412 13.5737 96.5315 13.8961 96.1456 14.1398C95.7597 14.3835 95.3206 14.5587 94.8281 14.6653C94.3356 14.7719 93.8304 14.8252 93.3126 14.8252H89.0173V4.04139H93.3126C93.7289 4.04139 94.1554 4.08455 94.592 4.17086C95.0286 4.25717 95.4246 4.40441 95.78 4.61257C96.1354 4.82073 96.4248 5.10251 96.6482 5.45791C96.8716 5.81331 96.9833 6.26517 96.9833 6.81351C96.9833 7.41261 96.8209 7.90763 96.4959 8.29857C96.171 8.68951 95.7445 8.97129 95.2165 9.14391V9.17437C95.5211 9.22515 95.808 9.31907 96.0771 9.45615C96.3461 9.59324 96.5797 9.7684 96.7777 9.98164C96.9757 10.1949 97.1331 10.4437 97.2499 10.728C97.3666 11.0123 97.425 11.3322 97.425 11.6876ZM94.4701 7.16383C94.4701 6.79828 94.3305 6.53173 94.0513 6.36418C93.772 6.19664 93.3582 6.11287 92.8099 6.11287H91.5305V8.33665H92.9318C93.4192 8.33665 93.7974 8.23764 94.0665 8.03964C94.3356 7.84163 94.4701 7.54969 94.4701 7.16383ZM94.8205 11.4439C94.8205 10.9971 94.6529 10.6874 94.3178 10.5147C93.9827 10.3421 93.536 10.2558 92.9775 10.2558H91.5305V12.7233H92.9927C93.1958 12.7233 93.4065 12.7055 93.6248 12.67C93.8431 12.6344 94.0411 12.571 94.2188 12.4796C94.3965 12.3882 94.5412 12.2587 94.6529 12.0912C94.7646 11.9236 94.8205 11.7079 94.8205 11.4439ZM105.046 6.84397C104.822 6.55965 104.53 6.33372 104.17 6.16617C103.81 5.99863 103.462 5.91485 103.127 5.91485C102.954 5.91485 102.779 5.93009 102.601 5.96055C102.423 5.99101 102.264 6.0494 102.121 6.13571C101.979 6.22202 101.86 6.33372 101.763 6.4708C101.667 6.60788 101.619 6.78304 101.619 6.99628C101.619 7.17906 101.657 7.33137 101.733 7.45323C101.809 7.57508 101.921 7.6817 102.068 7.77309C102.215 7.86447 102.39 7.94825 102.594 8.0244C102.797 8.10056 103.025 8.17926 103.279 8.26049C103.645 8.38234 104.025 8.51688 104.421 8.66412C104.817 8.81136 105.178 9.00683 105.503 9.25053C105.828 9.49423 106.097 9.79632 106.31 10.1568C106.523 10.5173 106.63 10.9666 106.63 11.5048C106.63 12.1242 106.516 12.6598 106.287 13.1117C106.059 13.5636 105.752 13.9367 105.366 14.2312C104.98 14.5257 104.538 14.744 104.041 14.8861C103.543 15.0283 103.03 15.0994 102.502 15.0994C101.73 15.0994 100.984 14.9648 100.263 14.6958C99.5422 14.4267 98.9431 14.0433 98.4659 13.5458L100.172 11.8094C100.436 12.1343 100.784 12.406 101.215 12.6243C101.647 12.8426 102.076 12.9518 102.502 12.9518C102.695 12.9518 102.883 12.9315 103.066 12.8908C103.249 12.8502 103.408 12.7842 103.546 12.6928C103.683 12.6014 103.792 12.4796 103.873 12.3273C103.954 12.175 103.995 11.9922 103.995 11.7789C103.995 11.5759 103.944 11.4032 103.843 11.2611C103.741 11.1189 103.596 10.9894 103.408 10.8727C103.221 10.7559 102.987 10.6493 102.708 10.5528C102.429 10.4563 102.111 10.3523 101.756 10.2406C101.411 10.1289 101.073 9.99687 100.743 9.84456C100.413 9.69224 100.118 9.49677 99.8595 9.25815C99.6006 9.01952 99.3924 8.73013 99.2351 8.38996C99.0777 8.04979 98.999 7.636 98.999 7.1486C98.999 6.54949 99.1208 6.03671 99.3645 5.61023C99.6082 5.18375 99.9281 4.83343 100.324 4.55926C100.72 4.28509 101.167 4.08455 101.664 3.95762C102.162 3.83069 102.665 3.76723 103.172 3.76723C103.782 3.76723 104.404 3.87892 105.038 4.10232C105.673 4.32571 106.229 4.65572 106.706 5.09236L105.046 6.84397Z" fill="#5F6368"/>
<path fill-rule="evenodd" clip-rule="evenodd" d="M2.34329 10.1543C2.34329 13.762 4.78922 16.7985 8.11327 17.6959L8.11323 17.6961C8.61382 17.8294 8.98262 18.2858 8.98262 18.8284C8.98262 19.4754 8.45806 20 7.81097 20C7.73072 20 7.65236 19.9919 7.57664 19.9766L7.57622 19.9784L7.5264 19.9652C7.51229 19.9617 7.49828 19.9579 7.48437 19.9539C3.17156 18.7816 0 14.8383 0 10.1543C0 4.54622 4.54622 0 10.1543 0C15.7623 0 20.3085 4.54622 20.3085 10.1543C20.3085 14.8383 17.137 18.7816 12.8242 19.9539C12.8103 19.9579 12.7962 19.9617 12.7821 19.9652L12.7323 19.9784L12.7319 19.9766C12.6562 19.9919 12.5778 20 12.4976 20C11.8505 20 11.3259 19.4754 11.3259 18.8284C11.3259 18.2858 11.6947 17.8294 12.1953 17.6961L12.1953 17.6959C15.5193 16.7985 17.9652 13.762 17.9652 10.1543C17.9652 5.84038 14.4681 2.34329 10.1543 2.34329C5.84038 2.34329 2.34329 5.84038 2.34329 10.1543ZM8.16922 15.2505C6.13089 14.4559 4.68658 12.4738 4.68658 10.1543C4.68658 7.13455 7.13455 4.68658 10.1543 4.68658C13.174 4.68658 15.6219 7.13455 15.6219 10.1543C15.6219 12.4738 14.1776 14.4559 12.1393 15.2505L12.1393 15.2504C12.0693 15.2799 11.9924 15.2962 11.9117 15.2962C11.5926 15.2962 11.3331 15.0411 11.3261 14.7237H11.3259L11.3259 14.7104L11.3259 10.1543C11.3259 9.50718 10.8013 8.98262 10.1543 8.98262C9.50718 8.98262 8.98262 9.50718 8.98262 10.1543V14.7093L8.98262 14.7104L8.98262 14.7115V14.7237H8.98247C8.97541 15.0411 8.7159 15.2962 8.3968 15.2962C8.31608 15.2962 8.23918 15.2799 8.16921 15.2504L8.16922 15.2505Z" fill="#5F6368"/>
</svg>
